<svg width="170" height="32" viewBox="0 0 170 32" fill="none" xmlns="http://www.w3.org/2000/svg">
<path fill-rule="evenodd" clip-rule="evenodd" d="M113.624 0.0949707H89.0025C87.7884 0.0949707 86.6124 0.512293 85.5501 1.30899C84.4499 2.10569 83.5015 3.20588 82.7048 4.64753C81.8701 6.05123 81.2252 7.68257 80.7699 9.6174C80.3147 11.5143 80.087 13.5629 80.087 15.8013C80.087 18.0017 80.3147 20.0883 80.7699 22.0231C81.2252 23.9959 81.8701 25.7031 82.6668 27.1827C83.4635 28.6623 84.412 29.8004 85.5122 30.673C86.5744 31.5076 87.7505 31.9249 88.9645 31.9249H109.148C110.703 31.9249 112.031 31.1282 113.131 29.4969C114.193 27.9035 114.762 25.7031 114.762 22.8957C114.762 21.492 114.611 19.1778 114.345 18.0017C114.042 16.8256 113.662 15.8013 113.169 14.9667C112.676 14.132 112.107 13.4871 111.424 12.9939C110.779 12.5007 110.058 12.2731 109.261 12.2731H94.4655V18.4949H103.457C104.064 18.4949 104.519 18.7984 104.823 19.3675C105.392 20.4677 105.392 21.9472 104.785 23.0474C104.481 23.6165 104.026 23.92 103.419 23.92H95.6416C94.2758 23.92 92.7583 23.0854 91.7719 21.454C90.7855 19.8227 90.6717 18.7984 90.6717 16.2945C90.6717 13.8285 91.1649 11.7419 92.1134 10.0347C93.0618 8.32751 94.2379 7.45493 95.6416 7.45493H113.624V0.0949707Z" fill="white"/>
<path fill-rule="evenodd" clip-rule="evenodd" d="M170 0.0949707H145.075C143.823 0.0949707 142.685 0.512293 141.622 1.30899C140.522 2.10569 139.574 3.20588 138.777 4.60959C137.98 5.97535 137.335 7.64462 136.88 9.54152C136.387 11.4384 136.159 13.525 136.159 15.7254C136.159 17.9258 136.387 20.0124 136.88 21.9852C137.335 23.958 137.98 25.7031 138.777 27.1447C139.574 28.5864 140.522 29.7625 141.622 30.635C142.685 31.5076 143.823 31.9249 145.075 31.9249H170V23.92H151.372C148.224 23.92 146.516 18.9881 146.516 15.991C146.516 12.6524 147.768 7.45493 151.372 7.45493H170V0.0949707Z" fill="white"/>
<path d="M130.924 0.0949707H119.998V31.9249H130.924V0.0949707Z" fill="white"/>
<path fill-rule="evenodd" clip-rule="evenodd" d="M66.0879 31.9249H46.3602C45.1462 31.9249 44.008 31.5076 42.9078 30.7109C41.8076 29.9142 40.8592 28.7761 40.0245 27.3344C39.2278 25.8928 38.5829 24.1476 38.0897 22.1369C37.6345 20.1262 37.4068 17.8879 37.4068 15.4598C37.4068 13.2594 37.6345 11.2108 38.1276 9.35183C38.6208 7.49287 39.2658 5.86154 40.0625 4.45784C40.8971 3.09207 41.8456 1.99187 42.9078 1.23311C44.008 0.47435 45.1462 0.0949707 46.3602 0.0949707H66.1638C67.3399 0.0949707 68.478 0.47435 69.5403 1.23311C70.6026 1.99187 71.5131 3.05413 72.3098 4.4199C73.0685 5.78566 73.6755 7.417 74.1687 9.27596C74.624 11.1349 74.8516 13.1836 74.8516 15.384C74.8516 17.6223 74.624 19.7089 74.1687 21.7196C73.6755 23.6924 73.0685 25.4755 72.2718 26.993C71.4751 28.5105 70.5646 29.6866 69.5023 30.5971C68.4021 31.4697 67.3019 31.9249 66.0879 31.9249ZM53.227 23.92H59.4867C60.8525 23.92 62.0286 23.0474 62.977 21.3782C63.9634 19.671 64.4566 18.5328 64.4566 15.991C64.4566 14.739 64.3048 13.5629 64.0772 12.5386C63.8117 11.5143 63.4702 10.6038 63.015 9.88296C62.5597 9.1242 62.0286 8.55514 61.3836 8.09988C60.7766 7.68257 60.1317 7.45493 59.4488 7.45493H53.189C52.5061 7.45493 51.8612 7.68257 51.2542 8.13782C50.6472 8.59308 50.116 9.23802 49.6608 9.99678C49.1676 10.7935 48.8262 11.704 48.5606 12.7662C48.295 13.8285 48.1433 14.9667 48.1433 16.1807C48.1433 18.6846 48.6744 19.7848 49.6608 21.4161C50.6472 23.0854 51.8233 23.92 53.227 23.92Z" fill="white"/>
<path fill-rule="evenodd" clip-rule="evenodd" d="M8.00491 31.9249H32.7405L32.7784 23.8821L13.1265 23.92C11.647 23.6165 10.9641 22.7439 11.002 21.3402V0.0949707H0V21.1885C0.0758759 25.2478 0.34144 28.0553 2.01071 29.9142C3.3006 31.3179 4.62843 31.8111 8.00491 31.9249Z" fill="white"/>
</svg>
