<svg width="200" height="38" viewBox="0 0 200 38" fill="none" xmlns="http://www.w3.org/2000/svg">
<path fill-rule="evenodd" clip-rule="evenodd" d="M133.676 0.286469H104.709C103.281 0.286469 101.897 0.777436 100.647 1.71473C99.3528 2.65202 98.237 3.94637 97.2997 5.64242C96.3178 7.29383 95.559 9.21305 95.0234 11.4893C94.4878 13.721 94.22 16.1311 94.22 18.7645C94.22 21.3532 94.4878 23.808 95.0234 26.0843C95.559 28.4052 96.3178 30.4137 97.2551 32.1544C98.1924 33.895 99.3082 35.234 100.603 36.2606C101.852 37.2425 103.236 37.7335 104.664 37.7335H128.409C130.239 37.7335 131.801 36.7962 133.095 34.877C134.345 33.0024 135.015 30.4137 135.015 27.1108C135.015 25.4594 134.836 22.7368 134.524 21.3532C134.166 19.9696 133.72 18.7645 133.14 17.7826C132.56 16.8006 131.89 16.0419 131.087 15.4617C130.328 14.8814 129.48 14.6136 128.543 14.6136H111.136V21.9334H121.714C122.428 21.9334 122.964 22.2905 123.321 22.96C123.99 24.2543 123.99 25.995 123.276 27.2894C122.919 27.9589 122.383 28.3159 121.669 28.3159H112.52C110.913 28.3159 109.127 27.334 107.967 25.4148C106.807 23.4956 106.673 22.2905 106.673 19.3447C106.673 16.4436 107.253 13.9888 108.369 11.9803C109.485 9.97181 110.868 8.94525 112.52 8.94525H133.676V0.286469Z" fill="#E4771E"/>
<path fill-rule="evenodd" clip-rule="evenodd" d="M200 0.286469H170.676C169.203 0.286469 167.864 0.777436 166.615 1.71473C165.32 2.65202 164.204 3.94636 163.267 5.59778C162.33 7.20456 161.571 9.16841 161.035 11.4001C160.455 13.6317 160.187 16.0865 160.187 18.6752C160.187 21.2639 160.455 23.7187 161.035 26.0397C161.571 28.3606 162.33 30.4137 163.267 32.1097C164.204 33.8058 165.32 35.1894 166.615 36.216C167.864 37.2425 169.203 37.7335 170.676 37.7335H200V28.3159H178.085C174.381 28.3159 172.372 22.5136 172.372 18.9876C172.372 15.06 173.845 8.94525 178.085 8.94525H200V0.286469Z" fill="#09120A"/>
<path d="M154.028 0.286469H141.174V37.7335H154.028V0.286469Z" fill="#09120A"/>
<path fill-rule="evenodd" clip-rule="evenodd" d="M77.7505 37.7335H54.5414C53.1131 37.7335 51.7742 37.2425 50.4798 36.3052C49.1854 35.3679 48.0696 34.0289 47.0877 32.3329C46.1504 30.6368 45.3916 28.5837 44.8114 26.2182C44.2758 23.8526 44.008 21.2193 44.008 18.3628C44.008 15.7741 44.2758 13.3639 44.856 11.1769C45.4363 8.98988 46.195 7.07067 47.1323 5.41925C48.1143 3.81247 49.2301 2.51811 50.4798 1.62546C51.7742 0.732797 53.1131 0.286469 54.5414 0.286469H77.8398C79.2234 0.286469 80.5624 0.732797 81.8121 1.62546C83.0618 2.51811 84.133 3.76783 85.0703 5.37462C85.963 6.9814 86.6771 8.90062 87.2573 11.0876C87.7929 13.2746 88.0607 15.6848 88.0607 18.2735C88.0607 20.9069 87.7929 23.3617 87.2573 25.7272C86.6771 28.0481 85.9629 30.1459 85.0257 31.9312C84.0884 33.7165 83.0172 35.1001 81.7675 36.1713C80.4731 37.1979 79.1788 37.7335 77.7505 37.7335ZM62.6199 28.3159H69.9844C71.5912 28.3159 72.9748 27.2894 74.0906 25.3255C75.2511 23.317 75.8313 21.9781 75.8313 18.9876C75.8313 17.5148 75.6528 16.1311 75.385 14.9261C75.0725 13.721 74.6708 12.6498 74.1352 11.8018C73.5996 10.9091 72.9748 10.2396 72.216 9.70401C71.5019 9.21305 70.7431 8.94525 69.9397 8.94525H62.5753C61.7719 8.94525 61.0132 9.21305 60.299 9.74865C59.5849 10.2842 58.96 11.043 58.4245 11.9357C57.8442 12.8729 57.4425 13.9441 57.1301 15.1939C56.8177 16.4436 56.6391 17.7826 56.6391 19.2108C56.6391 22.1566 57.264 23.4509 58.4245 25.3702C59.5849 27.334 60.9685 28.3159 62.6199 28.3159Z" fill="#09120A"/>
<path fill-rule="evenodd" clip-rule="evenodd" d="M9.41754 37.7335H38.5182L38.5628 28.2713L15.443 28.3159C13.7023 27.9589 12.8989 26.9323 12.9435 25.2809V0.286469H0V25.1024C0.0892658 29.8781 0.401694 33.1809 2.36554 35.3679C3.88306 37.0193 5.44521 37.5996 9.41754 37.7335Z" fill="#09120A"/>
</svg>
